{
	"asset":{
		"generator":"Khronos glTF Blender I/O v4.4.56",
		"version":"2.0"
	},
	"scene":0,
	"scenes":[
		{
			"name":"Scene",
			"nodes":[
				0
			]
		}
	],
	"nodes":[
		{
			"mesh":0,
			"name":"Mesh1",
			"rotation":[
				0.7071068286895752,
				0,
				0,
				0.7071068286895752
			],
			"scale":[
				18.05290985107422,
				18.05290985107422,
				18.05290985107422
			]
		}
	],
	"materials":[
		{
			"doubleSided":true,
			"name":"Material.001",
			"pbrMetallicRoughness":{
				"baseColorTexture":{
					"index":0
				},
				"metallicFactor":0,
				"roughnessFactor":0.5
			}
		}
	],
	"meshes":[
		{
			"name":"Mesh1",
			"primitives":[
				{
					"attributes":{
						"POSITION":0,
						"NORMAL":1,
						"TEXCOORD_0":2,
						"TANGENT":3
					},
					"indices":4,
					"material":0
				}
			]
		}
	],
	"textures":[
		{
			"sampler":0,
			"source":0
		}
	],
	"images":[
		{
			"mimeType":"image/png",
			"name":"texture_0.png",
			"uri":"../../Assets/%D0%B2%D1%81%D1%8F%D0%BA%D0%BE%D0%B5/textures/texture_0.png"
		}
	],
	"accessors":[
		{
			"bufferView":0,
			"componentType":5126,
			"count":29307,
			"max":[
				1.0006250143051147,
				0.9980890154838562,
				0.3435550034046173
			],
			"min":[
				-0.9798370003700256,
				-0.87745600938797,
				-0.318572998046875
			],
			"type":"VEC3"
		},
		{
			"bufferView":1,
			"componentType":5126,
			"count":29307,
			"type":"VEC3"
		},
		{
			"bufferView":2,
			"componentType":5126,
			"count":29307,
			"type":"VEC2"
		},
		{
			"bufferView":3,
			"componentType":5126,
			"count":29307,
			"type":"VEC4"
		},
		{
			"bufferView":4,
			"componentType":5123,
			"count":90405,
			"type":"SCALAR"
		}
	],
	"bufferViews":[
		{
			"buffer":0,
			"byteLength":351684,
			"byteOffset":0,
			"target":34962
		},
		{
			"buffer":0,
			"byteLength":351684,
			"byteOffset":351684,
			"target":34962
		},
		{
			"buffer":0,
			"byteLength":234456,
			"byteOffset":703368,
			"target":34962
		},
		{
			"buffer":0,
			"byteLength":468912,
			"byteOffset":937824,
			"target":34962
		},
		{
			"buffer":0,
			"byteLength":180810,
			"byteOffset":1406736,
			"target":34963
		}
	],
	"samplers":[
		{
			"magFilter":9729,
			"minFilter":9987
		}
	],
	"buffers":[
		{
			"byteLength":1587548,
			"uri":"%D0%B1%D0%B8%D0%B1%D0%B8%D0%BA%D0%B0-8430387880f87b47e2316c9dde75dd57.bin"
		}
	]
}
