{
	"asset":{
		"generator":"Khronos glTF Blender I/O v4.4.56",
		"version":"2.0"
	},
	"scene":0,
	"scenes":[
		{
			"name":"Scene",
			"nodes":[
				0,
				1,
				2,
				3,
				4,
				5,
				6,
				7,
				8,
				9,
				10,
				11,
				12
			]
		}
	],
	"nodes":[
		{
			"mesh":0,
			"name":"Cube",
			"scale":[
				0.787153422832489,
				0.21413737535476685,
				1
			],
			"translation":[
				-0.28766897320747375,
				0.6215716600418091,
				0
			]
		},
		{
			"mesh":1,
			"name":"Cube.001",
			"scale":[
				1.2411564588546753,
				0.2711843252182007,
				0.894707202911377
			],
			"translation":[
				0.5904304385185242,
				0.5477105975151062,
				1.8696610927581787
			]
		},
		{
			"mesh":2,
			"name":"Cube.002",
			"rotation":[
				0,
				0,
				-0.7071068286895752,
				0.7071068286895752
			],
			"scale":[
				0.36713218688964844,
				0.2711843252182007,
				0.894707202911377
			],
			"translation":[
				-0.8899943232536316,
				0.598810076713562,
				1.8696610927581787
			]
		},
		{
			"mesh":3,
			"name":"Cube.003",
			"rotation":[
				0,
				0,
				-0.7071068286895752,
				0.7071068286895752
			],
			"scale":[
				0.36713218688964844,
				0.2711843252182007,
				0.894707202911377
			],
			"translation":[
				-0.8899943232536316,
				1.3389761447906494,
				1.8696610927581787
			]
		},
		{
			"mesh":4,
			"name":"Cube.004",
			"rotation":[
				0,
				0,
				-0.7071068286895752,
				0.7071068286895752
			],
			"scale":[
				0.36713218688964844,
				0.2711843252182007,
				0.894707202911377
			],
			"translation":[
				-0.8899943232536316,
				2.0829265117645264,
				1.8696610927581787
			]
		},
		{
			"mesh":5,
			"name":"Cube.005",
			"rotation":[
				0,
				0.32793471217155457,
				0,
				0.9447003602981567
			],
			"scale":[
				0.44329795241355896,
				0.44329795241355896,
				0.44329795241355896
			],
			"translation":[
				-0.09261862933635712,
				0.8384696841239929,
				2.20090651512146
			]
		},
		{
			"mesh":6,
			"name":"Cube.006",
			"rotation":[
				0,
				-0.026326771825551987,
				0,
				0.9996533989906311
			],
			"scale":[
				0.4432979226112366,
				0.44329795241355896,
				0.4432979226112366
			],
			"translation":[
				-0.09261862933635712,
				0.8384696841239929,
				0.9271038770675659
			]
		},
		{
			"mesh":7,
			"name":"Cube.007",
			"rotation":[
				0,
				-0.013987239450216293,
				0,
				0.9999021887779236
			],
			"scale":[
				0.4432979226112366,
				0.44329795241355896,
				0.4432979226112366
			],
			"translation":[
				-0.09261862933635712,
				0.8384696841239929,
				-3.7435054779052734
			]
		},
		{
			"mesh":8,
			"name":"Cube.008",
			"rotation":[
				0,
				-0.1973167508840561,
				0,
				0.9803398251533508
			],
			"scale":[
				0.44329795241355896,
				0.44329795241355896,
				0.44329795241355896
			],
			"translation":[
				-0.09261862933635712,
				0.8384696841239929,
				-5.141422271728516
			]
		},
		{
			"mesh":9,
			"name":"Cube.009",
			"rotation":[
				0,
				0,
				-0.7071068286895752,
				0.7071068286895752
			],
			"scale":[
				0.36713218688964844,
				0.2711843252182007,
				0.894707202911377
			],
			"translation":[
				-0.8899943232536316,
				2.7699062824249268,
				1.8696610927581787
			]
		},
		{
			"mesh":10,
			"name":"Cube.010",
			"scale":[
				0.19260574877262115,
				0.21528251469135284,
				4.404482364654541
			],
			"translation":[
				-0.8457345366477966,
				3.3293933868408203,
				-1.7428267002105713
			]
		},
		{
			"mesh":11,
			"name":"Cube.011",
			"rotation":[
				0,
				-0.026326771825551987,
				0,
				0.9996533989906311
			],
			"scale":[
				0.4432979226112366,
				0.44329795241355896,
				0.4432979226112366
			],
			"translation":[
				-0.09261862933635712,
				0.8384696841239929,
				-1.973246455192566
			]
		},
		{
			"mesh":12,
			"name":"Cube.012",
			"rotation":[
				0,
				-0.1973167508840561,
				0,
				0.9803398251533508
			],
			"scale":[
				0.44329795241355896,
				0.44329795241355896,
				0.44329795241355896
			],
			"translation":[
				-0.09261862933635712,
				0.8384696841239929,
				-0.6733150482177734
			]
		}
	],
	"materials":[
		{
			"doubleSided":true,
			"name":"Material.002",
			"pbrMetallicRoughness":{
				"baseColorFactor":[
					0.2019599974155426,
					0.2019599974155426,
					0.2019599974155426,
					1
				],
				"metallicFactor":0.5272727012634277,
				"roughnessFactor":0.5
			}
		},
		{
			"doubleSided":true,
			"name":"\u043e\u0431\u0438\u0432\u043a\u0430",
			"pbrMetallicRoughness":{
				"baseColorFactor":[
					0.2978553771972656,
					0.13417035341262817,
					0.02991720847785473,
					1
				],
				"metallicFactor":0,
				"roughnessFactor":0.5
			}
		},
		{
			"doubleSided":true,
			"name":"\u043f\u043e\u0434\u0443\u0448\u043a\u0430",
			"pbrMetallicRoughness":{
				"baseColorFactor":[
					0.14546701312065125,
					0.14546701312065125,
					0.14546701312065125,
					1
				],
				"metallicFactor":0,
				"roughnessFactor":0.7363636493682861
			}
		}
	],
	"meshes":[
		{
			"name":"Cube.001",
			"primitives":[
				{
					"attributes":{
						"POSITION":0,
						"NORMAL":1,
						"TEXCOORD_0":2
					},
					"indices":3,
					"material":0
				}
			]
		},
		{
			"name":"Cube.002",
			"primitives":[
				{
					"attributes":{
						"POSITION":4,
						"NORMAL":5,
						"TEXCOORD_0":6,
						"TANGENT":7
					},
					"indices":8,
					"material":1
				}
			]
		},
		{
			"name":"Cube.003",
			"primitives":[
				{
					"attributes":{
						"POSITION":9,
						"NORMAL":10,
						"TEXCOORD_0":11,
						"TANGENT":12
					},
					"indices":13,
					"material":1
				}
			]
		},
		{
			"name":"Cube.004",
			"primitives":[
				{
					"attributes":{
						"POSITION":14,
						"NORMAL":15,
						"TEXCOORD_0":16,
						"TANGENT":17
					},
					"indices":8,
					"material":1
				}
			]
		},
		{
			"name":"Cube.005",
			"primitives":[
				{
					"attributes":{
						"POSITION":18,
						"NORMAL":19,
						"TEXCOORD_0":20,
						"TANGENT":21
					},
					"indices":8,
					"material":1
				}
			]
		},
		{
			"name":"Cube.006",
			"primitives":[
				{
					"attributes":{
						"POSITION":22,
						"NORMAL":23,
						"TEXCOORD_0":24,
						"TANGENT":25
					},
					"indices":26,
					"material":2
				}
			]
		},
		{
			"name":"Cube.007",
			"primitives":[
				{
					"attributes":{
						"POSITION":27,
						"NORMAL":28,
						"TEXCOORD_0":29,
						"TANGENT":30
					},
					"indices":26,
					"material":2
				}
			]
		},
		{
			"name":"Cube.008",
			"primitives":[
				{
					"attributes":{
						"POSITION":31,
						"NORMAL":32,
						"TEXCOORD_0":33,
						"TANGENT":34
					},
					"indices":26,
					"material":2
				}
			]
		},
		{
			"name":"Cube.009",
			"primitives":[
				{
					"attributes":{
						"POSITION":35,
						"NORMAL":36,
						"TEXCOORD_0":37,
						"TANGENT":38
					},
					"indices":26,
					"material":2
				}
			]
		},
		{
			"name":"Cube.010",
			"primitives":[
				{
					"attributes":{
						"POSITION":39,
						"NORMAL":40,
						"TEXCOORD_0":41,
						"TANGENT":42
					},
					"indices":8,
					"material":1
				}
			]
		},
		{
			"name":"Cube.011",
			"primitives":[
				{
					"attributes":{
						"POSITION":43,
						"NORMAL":44,
						"TEXCOORD_0":45,
						"TANGENT":46
					},
					"indices":47,
					"material":0
				}
			]
		},
		{
			"name":"Cube.012",
			"primitives":[
				{
					"attributes":{
						"POSITION":48,
						"NORMAL":49,
						"TEXCOORD_0":50,
						"TANGENT":51
					},
					"indices":26,
					"material":2
				}
			]
		},
		{
			"name":"Cube.013",
			"primitives":[
				{
					"attributes":{
						"POSITION":52,
						"NORMAL":53,
						"TEXCOORD_0":54,
						"TANGENT":55
					},
					"indices":26,
					"material":2
				}
			]
		}
	],
	"accessors":[
		{
			"bufferView":0,
			"componentType":5126,
			"count":734,
			"max":[
				3.0766656398773193,
				13.536149978637695,
				2.632375717163086
			],
			"min":[
				-1.9312852621078491,
				-7.76581335067749,
				-6.173471450805664
			],
			"type":"VEC3"
		},
		{
			"bufferView":1,
			"componentType":5126,
			"count":734,
			"type":"VEC3"
		},
		{
			"bufferView":2,
			"componentType":5126,
			"count":734,
			"type":"VEC2"
		},
		{
			"bufferView":3,
			"componentType":5123,
			"count":1140,
			"type":"SCALAR"
		},
		{
			"bufferView":4,
			"componentType":5126,
			"count":3610,
			"max":[
				0.9955359697341919,
				0.9852822422981262,
				1.0000001192092896
			],
			"min":[
				-0.9969758987426758,
				-0.9914306998252869,
				-9.000000953674316
			],
			"type":"VEC3"
		},
		{
			"bufferView":5,
			"componentType":5126,
			"count":3610,
			"type":"VEC3"
		},
		{
			"bufferView":6,
			"componentType":5126,
			"count":3610,
			"type":"VEC2"
		},
		{
			"bufferView":7,
			"componentType":5126,
			"count":3610,
			"type":"VEC4"
		},
		{
			"bufferView":8,
			"componentType":5123,
			"count":14400,
			"type":"SCALAR"
		},
		{
			"bufferView":9,
			"componentType":5126,
			"count":8171,
			"max":[
				0.9955359697341919,
				0.9852822422981262,
				1.0000001192092896
			],
			"min":[
				-0.9969758987426758,
				-0.9914306998252869,
				-9.000000953674316
			],
			"type":"VEC3"
		},
		{
			"bufferView":10,
			"componentType":5126,
			"count":8171,
			"type":"VEC3"
		},
		{
			"bufferView":11,
			"componentType":5126,
			"count":8171,
			"type":"VEC2"
		},
		{
			"bufferView":12,
			"componentType":5126,
			"count":8171,
			"type":"VEC4"
		},
		{
			"bufferView":13,
			"componentType":5123,
			"count":14400,
			"type":"SCALAR"
		},
		{
			"bufferView":14,
			"componentType":5126,
			"count":3610,
			"max":[
				0.9955359697341919,
				0.9852822422981262,
				1.0000001192092896
			],
			"min":[
				-0.9969758987426758,
				-0.9914306998252869,
				-9.000000953674316
			],
			"type":"VEC3"
		},
		{
			"bufferView":15,
			"componentType":5126,
			"count":3610,
			"type":"VEC3"
		},
		{
			"bufferView":16,
			"componentType":5126,
			"count":3610,
			"type":"VEC2"
		},
		{
			"bufferView":17,
			"componentType":5126,
			"count":3610,
			"type":"VEC4"
		},
		{
			"bufferView":18,
			"componentType":5126,
			"count":3610,
			"max":[
				0.9955359697341919,
				0.9852822422981262,
				1.0000001192092896
			],
			"min":[
				-0.9969758987426758,
				-0.9914306998252869,
				-9.000000953674316
			],
			"type":"VEC3"
		},
		{
			"bufferView":19,
			"componentType":5126,
			"count":3610,
			"type":"VEC3"
		},
		{
			"bufferView":20,
			"componentType":5126,
			"count":3610,
			"type":"VEC2"
		},
		{
			"bufferView":21,
			"componentType":5126,
			"count":3610,
			"type":"VEC4"
		},
		{
			"bufferView":22,
			"componentType":5126,
			"count":553,
			"max":[
				1.6907610893249512,
				0.635291576385498,
				1.1384550333023071
			],
			"min":[
				-1.1585668325424194,
				-0.3386322557926178,
				-1.1735506057739258
			],
			"type":"VEC3"
		},
		{
			"bufferView":23,
			"componentType":5126,
			"count":553,
			"type":"VEC3"
		},
		{
			"bufferView":24,
			"componentType":5126,
			"count":553,
			"type":"VEC2"
		},
		{
			"bufferView":25,
			"componentType":5126,
			"count":553,
			"type":"VEC4"
		},
		{
			"bufferView":26,
			"componentType":5123,
			"count":2688,
			"type":"SCALAR"
		},
		{
			"bufferView":27,
			"componentType":5126,
			"count":553,
			"max":[
				1.6907610893249512,
				0.635291576385498,
				1.1384550333023071
			],
			"min":[
				-1.1585668325424194,
				-0.3386322557926178,
				-1.1735506057739258
			],
			"type":"VEC3"
		},
		{
			"bufferView":28,
			"componentType":5126,
			"count":553,
			"type":"VEC3"
		},
		{
			"bufferView":29,
			"componentType":5126,
			"count":553,
			"type":"VEC2"
		},
		{
			"bufferView":30,
			"componentType":5126,
			"count":553,
			"type":"VEC4"
		},
		{
			"bufferView":31,
			"componentType":5126,
			"count":553,
			"max":[
				1.6907610893249512,
				0.635291576385498,
				1.1384550333023071
			],
			"min":[
				-1.1585668325424194,
				-0.3386322557926178,
				-1.1735506057739258
			],
			"type":"VEC3"
		},
		{
			"bufferView":32,
			"componentType":5126,
			"count":553,
			"type":"VEC3"
		},
		{
			"bufferView":33,
			"componentType":5126,
			"count":553,
			"type":"VEC2"
		},
		{
			"bufferView":34,
			"componentType":5126,
			"count":553,
			"type":"VEC4"
		},
		{
			"bufferView":35,
			"componentType":5126,
			"count":553,
			"max":[
				1.6907610893249512,
				0.635291576385498,
				1.1384550333023071
			],
			"min":[
				-1.1585668325424194,
				-0.3386322557926178,
				-1.1735506057739258
			],
			"type":"VEC3"
		},
		{
			"bufferView":36,
			"componentType":5126,
			"count":553,
			"type":"VEC3"
		},
		{
			"bufferView":37,
			"componentType":5126,
			"count":553,
			"type":"VEC2"
		},
		{
			"bufferView":38,
			"componentType":5126,
			"count":553,
			"type":"VEC4"
		},
		{
			"bufferView":39,
			"componentType":5126,
			"count":3610,
			"max":[
				0.9955359697341919,
				0.9852822422981262,
				1.0000001192092896
			],
			"min":[
				-0.9969758987426758,
				-0.9914306998252869,
				-9.000000953674316
			],
			"type":"VEC3"
		},
		{
			"bufferView":40,
			"componentType":5126,
			"count":3610,
			"type":"VEC3"
		},
		{
			"bufferView":41,
			"componentType":5126,
			"count":3610,
			"type":"VEC2"
		},
		{
			"bufferView":42,
			"componentType":5126,
			"count":3610,
			"type":"VEC4"
		},
		{
			"bufferView":43,
			"componentType":5126,
			"count":216,
			"max":[
				1,
				1,
				1.012951374053955
			],
			"min":[
				-1,
				-1,
				-1
			],
			"type":"VEC3"
		},
		{
			"bufferView":44,
			"componentType":5126,
			"count":216,
			"type":"VEC3"
		},
		{
			"bufferView":45,
			"componentType":5126,
			"count":216,
			"type":"VEC2"
		},
		{
			"bufferView":46,
			"componentType":5126,
			"count":216,
			"type":"VEC4"
		},
		{
			"bufferView":47,
			"componentType":5123,
			"count":324,
			"type":"SCALAR"
		},
		{
			"bufferView":48,
			"componentType":5126,
			"count":553,
			"max":[
				1.6907610893249512,
				0.635291576385498,
				1.1384550333023071
			],
			"min":[
				-1.1585668325424194,
				-0.3386322557926178,
				-1.1735506057739258
			],
			"type":"VEC3"
		},
		{
			"bufferView":49,
			"componentType":5126,
			"count":553,
			"type":"VEC3"
		},
		{
			"bufferView":50,
			"componentType":5126,
			"count":553,
			"type":"VEC2"
		},
		{
			"bufferView":51,
			"componentType":5126,
			"count":553,
			"type":"VEC4"
		},
		{
			"bufferView":52,
			"componentType":5126,
			"count":553,
			"max":[
				1.6907610893249512,
				0.635291576385498,
				1.1384550333023071
			],
			"min":[
				-1.1585668325424194,
				-0.3386322557926178,
				-1.1735506057739258
			],
			"type":"VEC3"
		},
		{
			"bufferView":53,
			"componentType":5126,
			"count":553,
			"type":"VEC3"
		},
		{
			"bufferView":54,
			"componentType":5126,
			"count":553,
			"type":"VEC2"
		},
		{
			"bufferView":55,
			"componentType":5126,
			"count":553,
			"type":"VEC4"
		}
	],
	"bufferViews":[
		{
			"buffer":0,
			"byteLength":8808,
			"byteOffset":0,
			"target":34962
		},
		{
			"buffer":0,
			"byteLength":8808,
			"byteOffset":8808,
			"target":34962
		},
		{
			"buffer":0,
			"byteLength":5872,
			"byteOffset":17616,
			"target":34962
		},
		{
			"buffer":0,
			"byteLength":2280,
			"byteOffset":23488,
			"target":34963
		},
		{
			"buffer":0,
			"byteLength":43320,
			"byteOffset":25768,
			"target":34962
		},
		{
			"buffer":0,
			"byteLength":43320,
			"byteOffset":69088,
			"target":34962
		},
		{
			"buffer":0,
			"byteLength":28880,
			"byteOffset":112408,
			"target":34962
		},
		{
			"buffer":0,
			"byteLength":57760,
			"byteOffset":141288,
			"target":34962
		},
		{
			"buffer":0,
			"byteLength":28800,
			"byteOffset":199048,
			"target":34963
		},
		{
			"buffer":0,
			"byteLength":98052,
			"byteOffset":227848,
			"target":34962
		},
		{
			"buffer":0,
			"byteLength":98052,
			"byteOffset":325900,
			"target":34962
		},
		{
			"buffer":0,
			"byteLength":65368,
			"byteOffset":423952,
			"target":34962
		},
		{
			"buffer":0,
			"byteLength":130736,
			"byteOffset":489320,
			"target":34962
		},
		{
			"buffer":0,
			"byteLength":28800,
			"byteOffset":620056,
			"target":34963
		},
		{
			"buffer":0,
			"byteLength":43320,
			"byteOffset":648856,
			"target":34962
		},
		{
			"buffer":0,
			"byteLength":43320,
			"byteOffset":692176,
			"target":34962
		},
		{
			"buffer":0,
			"byteLength":28880,
			"byteOffset":735496,
			"target":34962
		},
		{
			"buffer":0,
			"byteLength":57760,
			"byteOffset":764376,
			"target":34962
		},
		{
			"buffer":0,
			"byteLength":43320,
			"byteOffset":822136,
			"target":34962
		},
		{
			"buffer":0,
			"byteLength":43320,
			"byteOffset":865456,
			"target":34962
		},
		{
			"buffer":0,
			"byteLength":28880,
			"byteOffset":908776,
			"target":34962
		},
		{
			"buffer":0,
			"byteLength":57760,
			"byteOffset":937656,
			"target":34962
		},
		{
			"buffer":0,
			"byteLength":6636,
			"byteOffset":995416,
			"target":34962
		},
		{
			"buffer":0,
			"byteLength":6636,
			"byteOffset":1002052,
			"target":34962
		},
		{
			"buffer":0,
			"byteLength":4424,
			"byteOffset":1008688,
			"target":34962
		},
		{
			"buffer":0,
			"byteLength":8848,
			"byteOffset":1013112,
			"target":34962
		},
		{
			"buffer":0,
			"byteLength":5376,
			"byteOffset":1021960,
			"target":34963
		},
		{
			"buffer":0,
			"byteLength":6636,
			"byteOffset":1027336,
			"target":34962
		},
		{
			"buffer":0,
			"byteLength":6636,
			"byteOffset":1033972,
			"target":34962
		},
		{
			"buffer":0,
			"byteLength":4424,
			"byteOffset":1040608,
			"target":34962
		},
		{
			"buffer":0,
			"byteLength":8848,
			"byteOffset":1045032,
			"target":34962
		},
		{
			"buffer":0,
			"byteLength":6636,
			"byteOffset":1053880,
			"target":34962
		},
		{
			"buffer":0,
			"byteLength":6636,
			"byteOffset":1060516,
			"target":34962
		},
		{
			"buffer":0,
			"byteLength":4424,
			"byteOffset":1067152,
			"target":34962
		},
		{
			"buffer":0,
			"byteLength":8848,
			"byteOffset":1071576,
			"target":34962
		},
		{
			"buffer":0,
			"byteLength":6636,
			"byteOffset":1080424,
			"target":34962
		},
		{
			"buffer":0,
			"byteLength":6636,
			"byteOffset":1087060,
			"target":34962
		},
		{
			"buffer":0,
			"byteLength":4424,
			"byteOffset":1093696,
			"target":34962
		},
		{
			"buffer":0,
			"byteLength":8848,
			"byteOffset":1098120,
			"target":34962
		},
		{
			"buffer":0,
			"byteLength":43320,
			"byteOffset":1106968,
			"target":34962
		},
		{
			"buffer":0,
			"byteLength":43320,
			"byteOffset":1150288,
			"target":34962
		},
		{
			"buffer":0,
			"byteLength":28880,
			"byteOffset":1193608,
			"target":34962
		},
		{
			"buffer":0,
			"byteLength":57760,
			"byteOffset":1222488,
			"target":34962
		},
		{
			"buffer":0,
			"byteLength":2592,
			"byteOffset":1280248,
			"target":34962
		},
		{
			"buffer":0,
			"byteLength":2592,
			"byteOffset":1282840,
			"target":34962
		},
		{
			"buffer":0,
			"byteLength":1728,
			"byteOffset":1285432,
			"target":34962
		},
		{
			"buffer":0,
			"byteLength":3456,
			"byteOffset":1287160,
			"target":34962
		},
		{
			"buffer":0,
			"byteLength":648,
			"byteOffset":1290616,
			"target":34963
		},
		{
			"buffer":0,
			"byteLength":6636,
			"byteOffset":1291264,
			"target":34962
		},
		{
			"buffer":0,
			"byteLength":6636,
			"byteOffset":1297900,
			"target":34962
		},
		{
			"buffer":0,
			"byteLength":4424,
			"byteOffset":1304536,
			"target":34962
		},
		{
			"buffer":0,
			"byteLength":8848,
			"byteOffset":1308960,
			"target":34962
		},
		{
			"buffer":0,
			"byteLength":6636,
			"byteOffset":1317808,
			"target":34962
		},
		{
			"buffer":0,
			"byteLength":6636,
			"byteOffset":1324444,
			"target":34962
		},
		{
			"buffer":0,
			"byteLength":4424,
			"byteOffset":1331080,
			"target":34962
		},
		{
			"buffer":0,
			"byteLength":8848,
			"byteOffset":1335504,
			"target":34962
		}
	],
	"buffers":[
		{
			"byteLength":1344352,
			"uri":"%D0%B1%D0%B8%D0%B2%D0%B0%D0%BD-379fb6cb882ef4d2f6bbf0a325bc5eb5.bin"
		}
	]
}
