{
	"asset":{
		"generator":"Khronos glTF Blender I/O v4.4.56",
		"version":"2.0"
	},
	"scene":0,
	"scenes":[
		{
			"name":"Scene",
			"nodes":[
				0
			]
		}
	],
	"nodes":[
		{
			"mesh":0,
			"name":"Cube"
		}
	],
	"materials":[
		{
			"doubleSided":true,
			"name":"Material",
			"pbrMetallicRoughness":{
				"baseColorFactor":[
					0.14650671184062958,
					0.14532160758972168,
					0.1279236227273941,
					1
				],
				"metallicFactor":0.6863636374473572,
				"roughnessFactor":0.531818151473999
			}
		}
	],
	"meshes":[
		{
			"name":"Cube",
			"primitives":[
				{
					"attributes":{
						"POSITION":0,
						"NORMAL":1,
						"TEXCOORD_0":2
					},
					"indices":3,
					"material":0
				}
			]
		}
	],
	"accessors":[
		{
			"bufferView":0,
			"componentType":5126,
			"count":918,
			"max":[
				1,
				1,
				1
			],
			"min":[
				-1,
				-1,
				-1
			],
			"type":"VEC3"
		},
		{
			"bufferView":1,
			"componentType":5126,
			"count":918,
			"type":"VEC3"
		},
		{
			"bufferView":2,
			"componentType":5126,
			"count":918,
			"type":"VEC2"
		},
		{
			"bufferView":3,
			"componentType":5123,
			"count":3156,
			"type":"SCALAR"
		}
	],
	"bufferViews":[
		{
			"buffer":0,
			"byteLength":11016,
			"byteOffset":0,
			"target":34962
		},
		{
			"buffer":0,
			"byteLength":11016,
			"byteOffset":11016,
			"target":34962
		},
		{
			"buffer":0,
			"byteLength":7344,
			"byteOffset":22032,
			"target":34962
		},
		{
			"buffer":0,
			"byteLength":6312,
			"byteOffset":29376,
			"target":34963
		}
	],
	"buffers":[
		{
			"byteLength":35688,
			"uri":"%D0%B2%D0%B5%D0%B4%D1%80%D0%BE-5697e3243477a7ca3fd22c6fc8e729f4.bin"
		}
	]
}
