{
	"asset":{
		"generator":"Khronos glTF Blender I/O v4.4.56",
		"version":"2.0"
	},
	"scene":0,
	"scenes":[
		{
			"name":"Scene",
			"nodes":[
				0
			]
		}
	],
	"nodes":[
		{
			"mesh":0,
			"name":"Sphere"
		}
	],
	"meshes":[
		{
			"name":"Sphere",
			"primitives":[
				{
					"attributes":{
						"POSITION":0,
						"NORMAL":1,
						"TEXCOORD_0":2
					},
					"indices":3
				}
			]
		}
	],
	"accessors":[
		{
			"bufferView":0,
			"componentType":5126,
			"count":870,
			"max":[
				0.9999997019767761,
				7.246315002441406,
				0.9999993443489075
			],
			"min":[
				-0.9999990463256836,
				-1,
				-1
			],
			"type":"VEC3"
		},
		{
			"bufferView":1,
			"componentType":5126,
			"count":870,
			"type":"VEC3"
		},
		{
			"bufferView":2,
			"componentType":5126,
			"count":870,
			"type":"VEC2"
		},
		{
			"bufferView":3,
			"componentType":5123,
			"count":4410,
			"type":"SCALAR"
		}
	],
	"bufferViews":[
		{
			"buffer":0,
			"byteLength":10440,
			"byteOffset":0,
			"target":34962
		},
		{
			"buffer":0,
			"byteLength":10440,
			"byteOffset":10440,
			"target":34962
		},
		{
			"buffer":0,
			"byteLength":6960,
			"byteOffset":20880,
			"target":34962
		},
		{
			"buffer":0,
			"byteLength":8820,
			"byteOffset":27840,
			"target":34963
		}
	],
	"buffers":[
		{
			"byteLength":36660,
			"uri":"%D0%BB%D0%B0%D0%BC%D0%BF%D0%BE%D1%87%D0%BA%D0%B0-c0cd377ea73c446a622e9d0f4ff7f038.bin"
		}
	]
}
