{
	"asset":{
		"generator":"Khronos glTF Blender I/O v4.4.56",
		"version":"2.0"
	},
	"extensionsUsed":[
		"KHR_materials_emissive_strength"
	],
	"scene":0,
	"scenes":[
		{
			"name":"Scene",
			"nodes":[
				0,
				1,
				2,
				3,
				4,
				5,
				6,
				7
			]
		}
	],
	"nodes":[
		{
			"mesh":0,
			"name":"Cylinder"
		},
		{
			"mesh":1,
			"name":"Cylinder.001",
			"rotation":[
				0,
				0,
				0.7081369161605835,
				0.706075131893158
			],
			"scale":[
				0.024054234847426414,
				0.10745009034872055,
				0.024054160341620445
			],
			"translation":[
				0.6995463967323303,
				0.2775745987892151,
				0
			]
		},
		{
			"mesh":2,
			"name":"Cylinder.002",
			"rotation":[
				0,
				0,
				0.7081369161605835,
				0.706075131893158
			],
			"scale":[
				0.03443826362490654,
				0.023182300850749016,
				0.034438151866197586
			],
			"translation":[
				0.775321364402771,
				0.2777414321899414,
				0
			]
		},
		{
			"mesh":3,
			"name":"Cylinder.003",
			"rotation":[
				0,
				0,
				0.7081369161605835,
				0.706075131893158
			],
			"scale":[
				0.03443826362490654,
				0.023182300850749016,
				0.034438151866197586
			],
			"translation":[
				0.7096326351165771,
				0.2775968313217163,
				0
			]
		},
		{
			"mesh":4,
			"name":"Cylinder.004",
			"rotation":[
				0,
				0,
				0.7081369161605835,
				0.706075131893158
			],
			"scale":[
				0.03443826362490654,
				0.023182300850749016,
				0.034438151866197586
			],
			"translation":[
				0.6417819857597351,
				0.2774474620819092,
				0
			]
		},
		{
			"mesh":5,
			"name":"Torus",
			"scale":[
				0.377804160118103,
				0.377804160118103,
				0.377804160118103
			],
			"translation":[
				0,
				0.1881655603647232,
				0
			]
		},
		{
			"mesh":6,
			"name":"Cube",
			"scale":[
				0.11515386402606964,
				0.04337366297841072,
				0.04337366297841072
			],
			"translation":[
				0.3611781597137451,
				0.18404626846313477,
				0
			]
		},
		{
			"mesh":7,
			"name":"Cylinder.005",
			"scale":[
				0.013821284286677837,
				0.013821284286677837,
				0.013821284286677837
			],
			"translation":[
				-0.07509595155715942,
				0.3053627014160156,
				-0.1538551151752472
			]
		}
	],
	"materials":[
		{
			"doubleSided":true,
			"name":"Material.001",
			"pbrMetallicRoughness":{
				"baseColorFactor":[
					0.16277137398719788,
					0.31861501932144165,
					0.05741624906659126,
					1
				],
				"roughnessFactor":0.7727272510528564
			}
		},
		{
			"doubleSided":true,
			"emissiveFactor":[
				1,
				0.013357883715520677,
				0.062335660898692524
			],
			"extensions":{
				"KHR_materials_emissive_strength":{
					"emissiveStrength":2.14126861331809
				}
			},
			"name":"Material.004",
			"pbrMetallicRoughness":{
				"baseColorFactor":[
					0.800000011920929,
					0.800000011920929,
					0.800000011920929,
					1
				],
				"metallicFactor":0,
				"roughnessFactor":0.5
			}
		},
		{
			"doubleSided":true,
			"name":"Material",
			"pbrMetallicRoughness":{
				"baseColorFactor":[
					0.800000011920929,
					0.800000011920929,
					0.800000011920929,
					1
				],
				"metallicFactor":0,
				"roughnessFactor":0.5
			}
		},
		{
			"doubleSided":true,
			"emissiveFactor":[
				0.8999999761581421,
				0.8999999761581421,
				0.8999999761581421
			],
			"name":"\u0436\u0435\u043b\u0435\u0437\u043d\u044b\u0439 \u043a\u0440\u0443\u0433",
			"pbrMetallicRoughness":{
				"baseColorFactor":[
					0.05452670156955719,
					0.05452670156955719,
					0.05452670156955719,
					1
				],
				"metallicFactor":0.19545455276966095,
				"roughnessFactor":0.5
			}
		},
		{
			"doubleSided":true,
			"name":"Material.003",
			"pbrMetallicRoughness":{
				"baseColorFactor":[
					0.08138538897037506,
					0.08138538897037506,
					0.08138538897037506,
					1
				],
				"metallicFactor":0.15909090638160706,
				"roughnessFactor":0.3909090757369995
			}
		},
		{
			"doubleSided":true,
			"name":"Material.002",
			"pbrMetallicRoughness":{
				"baseColorFactor":[
					0.019890645518898964,
					0.019890645518898964,
					0.019890645518898964,
					1
				],
				"metallicFactor":0.7181817889213562,
				"roughnessFactor":0.5
			}
		}
	],
	"meshes":[
		{
			"name":"Cylinder",
			"primitives":[
				{
					"attributes":{
						"POSITION":0,
						"NORMAL":1,
						"TEXCOORD_0":2
					},
					"indices":3,
					"material":0
				}
			]
		},
		{
			"name":"Cylinder.001",
			"primitives":[
				{
					"attributes":{
						"POSITION":4,
						"NORMAL":5,
						"TEXCOORD_0":6
					},
					"indices":7,
					"material":1
				}
			]
		},
		{
			"name":"Cylinder.002",
			"primitives":[
				{
					"attributes":{
						"POSITION":8,
						"NORMAL":9,
						"TEXCOORD_0":10
					},
					"indices":11,
					"material":2
				}
			]
		},
		{
			"name":"Cylinder.003",
			"primitives":[
				{
					"attributes":{
						"POSITION":12,
						"NORMAL":13,
						"TEXCOORD_0":14
					},
					"indices":11
				}
			]
		},
		{
			"name":"Cylinder.004",
			"primitives":[
				{
					"attributes":{
						"POSITION":15,
						"NORMAL":16,
						"TEXCOORD_0":17
					},
					"indices":11
				}
			]
		},
		{
			"name":"Torus",
			"primitives":[
				{
					"attributes":{
						"POSITION":18,
						"NORMAL":19,
						"TEXCOORD_0":20,
						"TANGENT":21
					},
					"indices":22,
					"material":3
				}
			]
		},
		{
			"name":"Cube.001",
			"primitives":[
				{
					"attributes":{
						"POSITION":23,
						"NORMAL":24,
						"TEXCOORD_0":25,
						"TANGENT":26
					},
					"indices":27,
					"material":4
				}
			]
		},
		{
			"name":"Cylinder.006",
			"primitives":[
				{
					"attributes":{
						"POSITION":28,
						"NORMAL":29,
						"TEXCOORD_0":30
					},
					"indices":31,
					"material":5
				}
			]
		}
	],
	"accessors":[
		{
			"bufferView":0,
			"componentType":5126,
			"count":4378,
			"max":[
				1.0701839923858643,
				0.33261725306510925,
				1.0701839923858643
			],
			"min":[
				-1.0701839923858643,
				-0.18343283236026764,
				-1.0701839923858643
			],
			"type":"VEC3"
		},
		{
			"bufferView":1,
			"componentType":5126,
			"count":4378,
			"type":"VEC3"
		},
		{
			"bufferView":2,
			"componentType":5126,
			"count":4378,
			"type":"VEC2"
		},
		{
			"bufferView":3,
			"componentType":5123,
			"count":12024,
			"type":"SCALAR"
		},
		{
			"bufferView":4,
			"componentType":5126,
			"count":1730,
			"max":[
				1.193291187286377,
				13.889787673950195,
				33.28722381591797
			],
			"min":[
				-1,
				-1,
				-33.45723342895508
			],
			"type":"VEC3"
		},
		{
			"bufferView":5,
			"componentType":5126,
			"count":1730,
			"type":"VEC3"
		},
		{
			"bufferView":6,
			"componentType":5126,
			"count":1730,
			"type":"VEC2"
		},
		{
			"bufferView":7,
			"componentType":5123,
			"count":4836,
			"type":"SCALAR"
		},
		{
			"bufferView":8,
			"componentType":5126,
			"count":3250,
			"max":[
				1.133561611175537,
				67.38360595703125,
				23.05730438232422
			],
			"min":[
				-1.0000014305114746,
				-1,
				-23.156341552734375
			],
			"type":"VEC3"
		},
		{
			"bufferView":9,
			"componentType":5126,
			"count":3250,
			"type":"VEC3"
		},
		{
			"bufferView":10,
			"componentType":5126,
			"count":3250,
			"type":"VEC2"
		},
		{
			"bufferView":11,
			"componentType":5123,
			"count":9300,
			"type":"SCALAR"
		},
		{
			"bufferView":12,
			"componentType":5126,
			"count":3250,
			"max":[
				1.1225781440734863,
				61.78469467163086,
				21.17337417602539
			],
			"min":[
				-1,
				-1,
				-21.260414123535156
			],
			"type":"VEC3"
		},
		{
			"bufferView":13,
			"componentType":5126,
			"count":3250,
			"type":"VEC3"
		},
		{
			"bufferView":14,
			"componentType":5126,
			"count":3250,
			"type":"VEC2"
		},
		{
			"bufferView":15,
			"componentType":5126,
			"count":3250,
			"max":[
				1.111222505569458,
				56.00151062011719,
				19.22745132446289
			],
			"min":[
				-1,
				-1,
				-19.302085876464844
			],
			"type":"VEC3"
		},
		{
			"bufferView":16,
			"componentType":5126,
			"count":3250,
			"type":"VEC3"
		},
		{
			"bufferView":17,
			"componentType":5126,
			"count":3250,
			"type":"VEC2"
		},
		{
			"bufferView":18,
			"componentType":5126,
			"count":1089,
			"max":[
				1.0859999656677246,
				0.085999995470047,
				1.0859999656677246
			],
			"min":[
				-1.0859999656677246,
				-0.085999995470047,
				-1.0859999656677246
			],
			"type":"VEC3"
		},
		{
			"bufferView":19,
			"componentType":5126,
			"count":1089,
			"type":"VEC3"
		},
		{
			"bufferView":20,
			"componentType":5126,
			"count":1089,
			"type":"VEC2"
		},
		{
			"bufferView":21,
			"componentType":5126,
			"count":1089,
			"type":"VEC4"
		},
		{
			"bufferView":22,
			"componentType":5123,
			"count":6144,
			"type":"SCALAR"
		},
		{
			"bufferView":23,
			"componentType":5126,
			"count":2808,
			"max":[
				1,
				1,
				10.922184944152832
			],
			"min":[
				-7.235731601715088,
				-1,
				-10.962806701660156
			],
			"type":"VEC3"
		},
		{
			"bufferView":24,
			"componentType":5126,
			"count":2808,
			"type":"VEC3"
		},
		{
			"bufferView":25,
			"componentType":5126,
			"count":2808,
			"type":"VEC2"
		},
		{
			"bufferView":26,
			"componentType":5126,
			"count":2808,
			"type":"VEC4"
		},
		{
			"bufferView":27,
			"componentType":5123,
			"count":4212,
			"type":"SCALAR"
		},
		{
			"bufferView":28,
			"componentType":5126,
			"count":2496,
			"max":[
				18.793338775634766,
				1,
				24.28112030029297
			],
			"min":[
				-7.803466320037842,
				-1,
				-2.2278456687927246
			],
			"type":"VEC3"
		},
		{
			"bufferView":29,
			"componentType":5126,
			"count":2496,
			"type":"VEC3"
		},
		{
			"bufferView":30,
			"componentType":5126,
			"count":2496,
			"type":"VEC2"
		},
		{
			"bufferView":31,
			"componentType":5123,
			"count":4836,
			"type":"SCALAR"
		}
	],
	"bufferViews":[
		{
			"buffer":0,
			"byteLength":52536,
			"byteOffset":0,
			"target":34962
		},
		{
			"buffer":0,
			"byteLength":52536,
			"byteOffset":52536,
			"target":34962
		},
		{
			"buffer":0,
			"byteLength":35024,
			"byteOffset":105072,
			"target":34962
		},
		{
			"buffer":0,
			"byteLength":24048,
			"byteOffset":140096,
			"target":34963
		},
		{
			"buffer":0,
			"byteLength":20760,
			"byteOffset":164144,
			"target":34962
		},
		{
			"buffer":0,
			"byteLength":20760,
			"byteOffset":184904,
			"target":34962
		},
		{
			"buffer":0,
			"byteLength":13840,
			"byteOffset":205664,
			"target":34962
		},
		{
			"buffer":0,
			"byteLength":9672,
			"byteOffset":219504,
			"target":34963
		},
		{
			"buffer":0,
			"byteLength":39000,
			"byteOffset":229176,
			"target":34962
		},
		{
			"buffer":0,
			"byteLength":39000,
			"byteOffset":268176,
			"target":34962
		},
		{
			"buffer":0,
			"byteLength":26000,
			"byteOffset":307176,
			"target":34962
		},
		{
			"buffer":0,
			"byteLength":18600,
			"byteOffset":333176,
			"target":34963
		},
		{
			"buffer":0,
			"byteLength":39000,
			"byteOffset":351776,
			"target":34962
		},
		{
			"buffer":0,
			"byteLength":39000,
			"byteOffset":390776,
			"target":34962
		},
		{
			"buffer":0,
			"byteLength":26000,
			"byteOffset":429776,
			"target":34962
		},
		{
			"buffer":0,
			"byteLength":39000,
			"byteOffset":455776,
			"target":34962
		},
		{
			"buffer":0,
			"byteLength":39000,
			"byteOffset":494776,
			"target":34962
		},
		{
			"buffer":0,
			"byteLength":26000,
			"byteOffset":533776,
			"target":34962
		},
		{
			"buffer":0,
			"byteLength":13068,
			"byteOffset":559776,
			"target":34962
		},
		{
			"buffer":0,
			"byteLength":13068,
			"byteOffset":572844,
			"target":34962
		},
		{
			"buffer":0,
			"byteLength":8712,
			"byteOffset":585912,
			"target":34962
		},
		{
			"buffer":0,
			"byteLength":17424,
			"byteOffset":594624,
			"target":34962
		},
		{
			"buffer":0,
			"byteLength":12288,
			"byteOffset":612048,
			"target":34963
		},
		{
			"buffer":0,
			"byteLength":33696,
			"byteOffset":624336,
			"target":34962
		},
		{
			"buffer":0,
			"byteLength":33696,
			"byteOffset":658032,
			"target":34962
		},
		{
			"buffer":0,
			"byteLength":22464,
			"byteOffset":691728,
			"target":34962
		},
		{
			"buffer":0,
			"byteLength":44928,
			"byteOffset":714192,
			"target":34962
		},
		{
			"buffer":0,
			"byteLength":8424,
			"byteOffset":759120,
			"target":34963
		},
		{
			"buffer":0,
			"byteLength":29952,
			"byteOffset":767544,
			"target":34962
		},
		{
			"buffer":0,
			"byteLength":29952,
			"byteOffset":797496,
			"target":34962
		},
		{
			"buffer":0,
			"byteLength":19968,
			"byteOffset":827448,
			"target":34962
		},
		{
			"buffer":0,
			"byteLength":9672,
			"byteOffset":847416,
			"target":34963
		}
	],
	"buffers":[
		{
			"byteLength":857088,
			"uri":"%D0%BC%D0%B8%D0%BD%D0%B0-ea57f449b257156ce093db2bc2925666.bin"
		}
	]
}
