{
	"asset":{
		"generator":"Khronos glTF Blender I/O v4.4.56",
		"version":"2.0"
	},
	"scene":0,
	"scenes":[
		{
			"name":"Scene",
			"nodes":[
				0,
				1,
				2,
				3,
				4,
				5,
				6
			]
		}
	],
	"nodes":[
		{
			"mesh":0,
			"name":"Cube",
			"scale":[
				0.28287431597709656,
				3.102825403213501,
				0.28287431597709656
			]
		},
		{
			"mesh":1,
			"name":"Cube.001",
			"rotation":[
				0,
				0,
				-0.7071068286895752,
				0.7071068286895752
			],
			"scale":[
				0.5204775333404541,
				0.8879443407058716,
				0.5204775333404541
			],
			"translation":[
				-0.1907457709312439,
				2.384349822998047,
				0
			]
		},
		{
			"mesh":2,
			"name":"Cube.002",
			"rotation":[
				0,
				1,
				0,
				0
			],
			"scale":[
				-0.3601895570755005,
				-0.11349412798881531,
				-0.3601895570755005
			],
			"translation":[
				0,
				1.7513254880905151,
				0
			]
		},
		{
			"mesh":3,
			"name":"Cube.003",
			"rotation":[
				0,
				1,
				0,
				0
			],
			"scale":[
				-0.3601895570755005,
				-0.11349412798881531,
				-0.3601895570755005
			],
			"translation":[
				0,
				3.0129494667053223,
				0
			]
		},
		{
			"mesh":4,
			"name":"Cube.004",
			"rotation":[
				0,
				1,
				0,
				0
			],
			"scale":[
				-0.504973292350769,
				-0.11349412798881531,
				-0.504973292350769
			],
			"translation":[
				0,
				-3.1897921562194824,
				0
			]
		},
		{
			"mesh":5,
			"name":"Cube.005",
			"rotation":[
				0,
				1,
				0,
				0
			],
			"scale":[
				-0.3601895570755005,
				-0.11349412798881531,
				-0.3601895570755005
			],
			"translation":[
				0,
				-2.947025775909424,
				0
			]
		},
		{
			"mesh":6,
			"name":"Cube.006",
			"rotation":[
				0,
				1,
				0,
				0
			],
			"scale":[
				-0.4142991304397583,
				-0.42399856448173523,
				-0.4142991304397583
			],
			"translation":[
				0,
				1.1752198934555054,
				0
			]
		}
	],
	"materials":[
		{
			"doubleSided":true,
			"name":"\u0440\u0443\u043a\u043e\u044f\u0442\u044c",
			"pbrMetallicRoughness":{
				"baseColorFactor":[
					0.2871338129043579,
					0.22383102774620056,
					0.12501117587089539,
					1
				],
				"metallicFactor":0.16363635659217834,
				"roughnessFactor":0.3181818127632141
			}
		},
		{
			"doubleSided":true,
			"name":"\u0436\u0435\u043b\u0435\u0437\u043e",
			"pbrMetallicRoughness":{
				"baseColorFactor":[
					0.3424481749534607,
					0.3424481749534607,
					0.3424481749534607,
					1
				],
				"roughnessFactor":0.30454546213150024
			}
		},
		{
			"doubleSided":true,
			"name":"Material.002",
			"pbrMetallicRoughness":{
				"baseColorFactor":[
					0.01752060279250145,
					0.01752060279250145,
					0.01752060279250145,
					1
				],
				"metallicFactor":0.19545455276966095,
				"roughnessFactor":0.5
			}
		},
		{
			"doubleSided":true,
			"name":"Material.001",
			"pbrMetallicRoughness":{
				"baseColorFactor":[
					0.1106700748205185,
					0.1106700748205185,
					0.1106700748205185,
					1
				],
				"metallicFactor":0.34545454382896423,
				"roughnessFactor":0.5
			}
		}
	],
	"meshes":[
		{
			"name":"Cube.001",
			"primitives":[
				{
					"attributes":{
						"POSITION":0,
						"NORMAL":1,
						"TEXCOORD_0":2
					},
					"indices":3,
					"material":0
				}
			]
		},
		{
			"name":"Cube.002",
			"primitives":[
				{
					"attributes":{
						"POSITION":4,
						"NORMAL":5,
						"TEXCOORD_0":6
					},
					"indices":7,
					"material":1
				}
			]
		},
		{
			"name":"Cube.003",
			"primitives":[
				{
					"attributes":{
						"POSITION":8,
						"NORMAL":9,
						"TEXCOORD_0":10
					},
					"indices":3,
					"material":2
				}
			]
		},
		{
			"name":"Cube.004",
			"primitives":[
				{
					"attributes":{
						"POSITION":11,
						"NORMAL":12,
						"TEXCOORD_0":13
					},
					"indices":3,
					"material":2
				}
			]
		},
		{
			"name":"Cube.005",
			"primitives":[
				{
					"attributes":{
						"POSITION":14,
						"NORMAL":15,
						"TEXCOORD_0":16
					},
					"indices":3,
					"material":3
				}
			]
		},
		{
			"name":"Cube.006",
			"primitives":[
				{
					"attributes":{
						"POSITION":17,
						"NORMAL":18,
						"TEXCOORD_0":19
					},
					"indices":20,
					"material":2
				}
			]
		},
		{
			"name":"Cube.007",
			"primitives":[
				{
					"attributes":{
						"POSITION":21,
						"NORMAL":22,
						"TEXCOORD_0":23
					},
					"indices":3,
					"material":2
				}
			]
		}
	],
	"accessors":[
		{
			"bufferView":0,
			"componentType":5126,
			"count":608,
			"max":[
				1.0389347076416016,
				1.0251446962356567,
				1.0389347076416016
			],
			"min":[
				-1.0389347076416016,
				-1,
				-1.0389347076416016
			],
			"type":"VEC3"
		},
		{
			"bufferView":1,
			"componentType":5126,
			"count":608,
			"type":"VEC3"
		},
		{
			"bufferView":2,
			"componentType":5126,
			"count":608,
			"type":"VEC2"
		},
		{
			"bufferView":3,
			"componentType":5123,
			"count":948,
			"type":"SCALAR"
		},
		{
			"bufferView":4,
			"componentType":5126,
			"count":1405,
			"max":[
				1,
				1.8325902223587036,
				1
			],
			"min":[
				-1,
				-1.6502397060394287,
				-1
			],
			"type":"VEC3"
		},
		{
			"bufferView":5,
			"componentType":5126,
			"count":1405,
			"type":"VEC3"
		},
		{
			"bufferView":6,
			"componentType":5126,
			"count":1405,
			"type":"VEC2"
		},
		{
			"bufferView":7,
			"componentType":5123,
			"count":2148,
			"type":"SCALAR"
		},
		{
			"bufferView":8,
			"componentType":5126,
			"count":608,
			"max":[
				1.0389347076416016,
				1.0251446962356567,
				1.0389347076416016
			],
			"min":[
				-1.0389347076416016,
				-1,
				-1.0389347076416016
			],
			"type":"VEC3"
		},
		{
			"bufferView":9,
			"componentType":5126,
			"count":608,
			"type":"VEC3"
		},
		{
			"bufferView":10,
			"componentType":5126,
			"count":608,
			"type":"VEC2"
		},
		{
			"bufferView":11,
			"componentType":5126,
			"count":608,
			"max":[
				1.0389347076416016,
				1.0251446962356567,
				1.0389347076416016
			],
			"min":[
				-1.0389347076416016,
				-1,
				-1.0389347076416016
			],
			"type":"VEC3"
		},
		{
			"bufferView":12,
			"componentType":5126,
			"count":608,
			"type":"VEC3"
		},
		{
			"bufferView":13,
			"componentType":5126,
			"count":608,
			"type":"VEC2"
		},
		{
			"bufferView":14,
			"componentType":5126,
			"count":608,
			"max":[
				1.0389347076416016,
				1.0251446962356567,
				1.0389347076416016
			],
			"min":[
				-1.0389347076416016,
				-1,
				-1.0389347076416016
			],
			"type":"VEC3"
		},
		{
			"bufferView":15,
			"componentType":5126,
			"count":608,
			"type":"VEC3"
		},
		{
			"bufferView":16,
			"componentType":5126,
			"count":608,
			"type":"VEC2"
		},
		{
			"bufferView":17,
			"componentType":5126,
			"count":6688,
			"max":[
				1.0389347076416016,
				1.0251446962356567,
				1.0389347076416016
			],
			"min":[
				-1.0389347076416016,
				-22.87156105041504,
				-1.0389347076416016
			],
			"type":"VEC3"
		},
		{
			"bufferView":18,
			"componentType":5126,
			"count":6688,
			"type":"VEC3"
		},
		{
			"bufferView":19,
			"componentType":5126,
			"count":6688,
			"type":"VEC2"
		},
		{
			"bufferView":20,
			"componentType":5123,
			"count":10428,
			"type":"SCALAR"
		},
		{
			"bufferView":21,
			"componentType":5126,
			"count":608,
			"max":[
				1.0389347076416016,
				1.0251446962356567,
				1.0389347076416016
			],
			"min":[
				-1.0389347076416016,
				-1,
				-1.0389347076416016
			],
			"type":"VEC3"
		},
		{
			"bufferView":22,
			"componentType":5126,
			"count":608,
			"type":"VEC3"
		},
		{
			"bufferView":23,
			"componentType":5126,
			"count":608,
			"type":"VEC2"
		}
	],
	"bufferViews":[
		{
			"buffer":0,
			"byteLength":7296,
			"byteOffset":0,
			"target":34962
		},
		{
			"buffer":0,
			"byteLength":7296,
			"byteOffset":7296,
			"target":34962
		},
		{
			"buffer":0,
			"byteLength":4864,
			"byteOffset":14592,
			"target":34962
		},
		{
			"buffer":0,
			"byteLength":1896,
			"byteOffset":19456,
			"target":34963
		},
		{
			"buffer":0,
			"byteLength":16860,
			"byteOffset":21352,
			"target":34962
		},
		{
			"buffer":0,
			"byteLength":16860,
			"byteOffset":38212,
			"target":34962
		},
		{
			"buffer":0,
			"byteLength":11240,
			"byteOffset":55072,
			"target":34962
		},
		{
			"buffer":0,
			"byteLength":4296,
			"byteOffset":66312,
			"target":34963
		},
		{
			"buffer":0,
			"byteLength":7296,
			"byteOffset":70608,
			"target":34962
		},
		{
			"buffer":0,
			"byteLength":7296,
			"byteOffset":77904,
			"target":34962
		},
		{
			"buffer":0,
			"byteLength":4864,
			"byteOffset":85200,
			"target":34962
		},
		{
			"buffer":0,
			"byteLength":7296,
			"byteOffset":90064,
			"target":34962
		},
		{
			"buffer":0,
			"byteLength":7296,
			"byteOffset":97360,
			"target":34962
		},
		{
			"buffer":0,
			"byteLength":4864,
			"byteOffset":104656,
			"target":34962
		},
		{
			"buffer":0,
			"byteLength":7296,
			"byteOffset":109520,
			"target":34962
		},
		{
			"buffer":0,
			"byteLength":7296,
			"byteOffset":116816,
			"target":34962
		},
		{
			"buffer":0,
			"byteLength":4864,
			"byteOffset":124112,
			"target":34962
		},
		{
			"buffer":0,
			"byteLength":80256,
			"byteOffset":128976,
			"target":34962
		},
		{
			"buffer":0,
			"byteLength":80256,
			"byteOffset":209232,
			"target":34962
		},
		{
			"buffer":0,
			"byteLength":53504,
			"byteOffset":289488,
			"target":34962
		},
		{
			"buffer":0,
			"byteLength":20856,
			"byteOffset":342992,
			"target":34963
		},
		{
			"buffer":0,
			"byteLength":7296,
			"byteOffset":363848,
			"target":34962
		},
		{
			"buffer":0,
			"byteLength":7296,
			"byteOffset":371144,
			"target":34962
		},
		{
			"buffer":0,
			"byteLength":4864,
			"byteOffset":378440,
			"target":34962
		}
	],
	"buffers":[
		{
			"byteLength":383304,
			"uri":"%D0%9C%D0%9E%D0%9B%D0%9E%D0%A2_blend-852379b7567472afb55a9ddd60deb926.bin"
		}
	]
}
