{
	"asset":{
		"generator":"Khronos glTF Blender I/O v4.4.56",
		"version":"2.0"
	},
	"scene":0,
	"scenes":[
		{
			"name":"Scene",
			"nodes":[
				0,
				1
			]
		}
	],
	"nodes":[
		{
			"mesh":0,
			"name":"Plane",
			"scale":[
				0.524427592754364,
				0.5221113562583923,
				0.524427592754364
			],
			"translation":[
				0,
				0.5043123960494995,
				0
			]
		},
		{
			"mesh":1,
			"name":"Plane.001",
			"scale":[
				2.2184970378875732,
				1,
				2.2184970378875732
			],
			"translation":[
				0,
				3.195341110229492,
				0
			]
		}
	],
	"materials":[
		{
			"doubleSided":true,
			"name":"Material.002",
			"pbrMetallicRoughness":{
				"baseColorFactor":[
					0.0194317027926445,
					0.0194317027926445,
					0.0194317027926445,
					1
				],
				"roughnessFactor":0.5
			}
		},
		{
			"doubleSided":true,
			"name":"Material.001",
			"pbrMetallicRoughness":{
				"baseColorFactor":[
					0.20978803932666779,
					0.20978803932666779,
					0.20978803932666779,
					1
				],
				"metallicFactor":0.75,
				"roughnessFactor":0.459090918302536
			}
		}
	],
	"meshes":[
		{
			"name":"Plane",
			"primitives":[
				{
					"attributes":{
						"POSITION":0,
						"NORMAL":1,
						"TEXCOORD_0":2
					},
					"indices":3,
					"material":0
				}
			]
		},
		{
			"name":"Plane.002",
			"primitives":[
				{
					"attributes":{
						"POSITION":4,
						"NORMAL":5,
						"TEXCOORD_0":6
					},
					"indices":7,
					"material":1
				}
			]
		}
	],
	"accessors":[
		{
			"bufferView":0,
			"componentType":5126,
			"count":963,
			"max":[
				1,
				5.0575947761535645,
				1
			],
			"min":[
				-1,
				-1.185630440711975,
				-1
			],
			"type":"VEC3"
		},
		{
			"bufferView":1,
			"componentType":5126,
			"count":963,
			"type":"VEC3"
		},
		{
			"bufferView":2,
			"componentType":5126,
			"count":963,
			"type":"VEC2"
		},
		{
			"bufferView":3,
			"componentType":5123,
			"count":3876,
			"type":"SCALAR"
		},
		{
			"bufferView":4,
			"componentType":5126,
			"count":418,
			"max":[
				1,
				0.18802207708358765,
				1
			],
			"min":[
				-1,
				0,
				-1
			],
			"type":"VEC3"
		},
		{
			"bufferView":5,
			"componentType":5126,
			"count":418,
			"type":"VEC3"
		},
		{
			"bufferView":6,
			"componentType":5126,
			"count":418,
			"type":"VEC2"
		},
		{
			"bufferView":7,
			"componentType":5123,
			"count":1716,
			"type":"SCALAR"
		}
	],
	"bufferViews":[
		{
			"buffer":0,
			"byteLength":11556,
			"byteOffset":0,
			"target":34962
		},
		{
			"buffer":0,
			"byteLength":11556,
			"byteOffset":11556,
			"target":34962
		},
		{
			"buffer":0,
			"byteLength":7704,
			"byteOffset":23112,
			"target":34962
		},
		{
			"buffer":0,
			"byteLength":7752,
			"byteOffset":30816,
			"target":34963
		},
		{
			"buffer":0,
			"byteLength":5016,
			"byteOffset":38568,
			"target":34962
		},
		{
			"buffer":0,
			"byteLength":5016,
			"byteOffset":43584,
			"target":34962
		},
		{
			"buffer":0,
			"byteLength":3344,
			"byteOffset":48600,
			"target":34962
		},
		{
			"buffer":0,
			"byteLength":3432,
			"byteOffset":51944,
			"target":34963
		}
	],
	"buffers":[
		{
			"byteLength":55376,
			"uri":"%D1%81%D1%82%D0%BE%D0%BB-ec2c46c3c97a5bb768d643dbf47b6167.bin"
		}
	]
}
